<?xml version="1.0" standalone="no"?>
<!DOCTYPE svg PUBLIC "-//W3C//DTD SVG 1.1//EN" "http://www.w3.org/Graphics/SVG/1.1/DTD/svg11.dtd" >
<svg xmlns="http://www.w3.org/2000/svg">
<metadata>Generated by IcoMoon</metadata>
<defs>
<font id="icomoon" horiz-adv-x="1024">
<font-face units-per-em="1024" ascent="960" descent="-64" />
<missing-glyph horiz-adv-x="1024" />
<glyph unicode="&#x20;" horiz-adv-x="512" d="" />
<glyph unicode="&#xe900;" glyph-name="fb" d="M473.088 267.776h65.536v161.792h51.2l8.192 63.488h-59.392v45.056c0 10.24 2.048 18.432 6.144 22.528 4.096 6.144 14.336 8.192 26.624 8.192h32.768v57.344c-12.288 2.048-28.672 2.048-49.152 2.048-24.576 0-45.056-8.192-59.392-22.528s-22.528-34.816-22.528-61.44v-51.2h-53.248v-63.488h53.248v-161.792z" />
<glyph unicode="&#xe901;" glyph-name="tweet" d="M647.168 517.632c14.336 10.24 26.624 22.528 34.816 36.864-14.336-6.144-26.624-10.24-40.96-12.288 14.336 10.24 24.576 22.528 30.72 38.912-14.336-8.192-28.672-14.336-45.056-16.384-6.144 6.144-14.336 12.288-22.528 16.384s-18.432 6.144-28.672 6.144c-12.288 0-24.576-4.096-34.816-10.24s-18.432-14.336-24.576-26.624-10.24-22.528-10.24-34.816c0-6.144 0-10.24 2.048-16.384-28.672 2.048-55.296 8.192-79.872 20.48s-47.104 30.72-63.488 53.248c-6.144-10.24-10.24-22.528-10.24-34.816s2.048-24.576 8.192-34.816c6.144-10.24 14.336-18.432 22.528-24.576-10.24 0-22.528 4.096-30.72 10.24v0c0-16.384 6.144-30.72 16.384-45.056 10.24-12.288 24.576-20.48 40.96-24.576-6.144-2.048-12.288-2.048-18.432-2.048-4.096 0-8.192 0-12.288 0 4.096-14.336 12.288-24.576 24.576-34.816 12.288-8.192 26.624-14.336 40.96-14.336-26.624-20.48-55.296-30.72-88.064-30.72-6.144 0-12.288 0-16.384 0 32.768-20.48 69.632-30.72 108.544-30.72 40.96 0 77.824 10.24 108.544 30.72 28.672 18.432 51.2 45.056 67.584 75.776s22.528 61.44 22.528 94.208c0 6.144 0 8.192-2.048 10.24z" />
<glyph unicode="&#xe902;" glyph-name="gplus" d="M696.32 464.384h40.96v-40.96h-40.96v-40.96h-40.96v40.96h-40.96v40.96h40.96v40.96h40.96v-40.96zM561.152 468.48h-133.12v-49.152h79.872c-2.048-8.192-4.096-16.384-10.24-24.576-6.144-10.24-14.336-18.432-24.576-24.576-12.288-8.192-28.672-10.24-45.056-10.24s-30.72 4.096-43.008 12.288c-14.336 8.192-24.576 18.432-32.768 32.768s-12.288 28.672-12.288 45.056c0 16.384 4.096 30.72 12.288 45.056s18.432 24.576 32.768 32.768 28.672 12.288 43.008 12.288c22.528 0 40.96-6.144 55.296-20.48l38.912 36.864c-26.624 24.576-57.344 36.864-94.208 36.864-26.624 0-49.152-6.144-71.68-18.432s-38.912-30.72-51.2-51.2c-12.288-22.528-18.432-45.056-18.432-71.68s6.144-49.152 18.432-71.68c12.288-22.528 30.72-38.912 51.2-51.2 22.528-12.288 45.056-18.432 71.68-18.432s51.2 6.144 71.68 18.432 36.864 28.672 47.104 49.152c12.288 20.48 16.384 45.056 16.384 71.68 0 2.048 0 10.24-2.048 18.432z" />
<glyph unicode="&#xe903;" glyph-name="youtube" d="M473.088 390.656l100.352 57.344-100.352 57.344v-114.688zM694.272 540.16c4.096-12.288 6.144-30.72 6.144-57.344v-69.632c-2.048-26.624-4.096-45.056-6.144-57.344-2.048-8.192-6.144-14.336-12.288-20.48s-12.288-10.24-22.528-12.288c-12.288-4.096-40.96-6.144-86.016-6.144h-126.976c-45.056 2.048-73.728 4.096-86.016 6.144-8.192 2.048-16.384 6.144-22.528 12.288s-10.24 12.288-12.288 20.48c-4.096 12.288-6.144 32.768-6.144 57.344v34.816c0 10.24 0 22.528 0 34.816 2.048 24.576 4.096 45.056 6.144 57.344 2.048 8.192 6.144 16.384 12.288 22.528s12.288 10.24 22.528 12.288c12.288 4.096 40.96 6.144 86.016 6.144h126.976c45.056-2.048 73.728-4.096 86.016-6.144 8.192-2.048 16.384-6.144 22.528-12.288s10.24-14.336 12.288-22.528z" />
<glyph unicode="&#xe904;" d="M389.12 572.928h247.808v-81.92h-247.808v81.92z" />
<glyph unicode="&#xe905;" d="M389.12 491.008h247.808v-81.92h-247.808v81.92z" />
<glyph unicode="&#xe906;" d="M389.12 407.040h247.808v-81.92h-247.808v81.92z" />
<glyph unicode="&#xe907;" d="M389.12 572.928h247.808v-81.92h-247.808v81.92z" />
<glyph unicode="&#xe908;" d="M389.12 491.008h247.808v-81.92h-247.808v81.92z" />
<glyph unicode="&#xe909;" d="M389.12 407.040h247.808v-81.92h-247.808v81.92z" />
<glyph unicode="&#xe90a;" d="M389.12 572.928h81.92v-247.808h-81.92v247.808z" />
<glyph unicode="&#xe90b;" d="M389.12 570.88h247.808v-245.76h-247.808v245.76z" />
<glyph unicode="&#xe90c;" d="M518.144 550.4c0 0 0 0 0-2.048-16.384-8.192-32.768-14.336-51.2-24.576 18.432-8.192 34.816-16.384 51.2-24.576-18.432-8.192-34.816-16.384-51.2-24.576 18.432-8.192 34.816-16.384 51.2-24.576-18.432-8.192-34.816-16.384-51.2-24.576 18.432-8.192 34.816-16.384 51.2-24.576 0 0 0 0 0-2.048-16.384-8.192-32.768-14.336-51.2-24.576 18.432-8.192 34.816-16.384 51.2-24.576-18.432-8.192-34.816-16.384-51.2-24.576 2.048 0 208.896 0 208.896 0 0 81.92 0 163.84 0 245.76h-206.848c0 0 32.768-14.336 49.152-20.48z" />
<glyph unicode="&#xe90d;" glyph-name="dropdown" d="M583.68 493.056h-143.36c-2.048 0-6.144 0-6.144-2.048-2.048-2.048-4.096-4.096-4.096-8.192 0-2.048 0-6.144 2.048-6.144l71.68-71.68c2.048-2.048 4.096-2.048 8.192-2.048 2.048 0 6.144 0 6.144 2.048l71.68 71.68c2.048 2.048 2.048 4.096 2.048 6.144s0 6.144-2.048 8.192c-2.048 2.048-4.096 2.048-6.144 2.048z" />
<glyph unicode="&#xe90e;" glyph-name="callus" d="M612.352 378.368c-12.288 14.336-28.672 14.336-40.96 0-10.24-10.24-18.432-20.48-28.672-30.72-2.048-2.048-4.096-4.096-8.192-2.048-6.144 4.096-12.288 6.144-18.432 10.24-28.672 18.432-51.2 43.008-71.68 71.68-10.24 14.336-18.432 28.672-26.624 45.056-2.048 4.096-2.048 6.144 2.048 8.192 10.24 10.24 18.432 20.48 28.672 30.72 12.288 14.336 12.288 30.72 0 47.104-8.192 8.192-14.336 16.384-22.528 24.576s-16.384 16.384-22.528 24.576c-12.288 14.336-28.672 14.336-40.96 0-10.24-10.24-18.432-20.48-28.672-30.72-8.192-10.24-14.336-20.48-14.336-34.816-2.048-22.528 4.096-43.008 10.24-63.488 14.336-43.008 36.864-79.872 61.44-112.64 34.816-47.104 77.824-81.92 126.976-108.544 22.528-12.288 45.056-20.48 71.68-22.528 16.384-2.048 32.768 4.096 45.056 18.432 8.192 10.24 18.432 18.432 26.624 28.672 12.288 14.336 12.288 30.72 0 45.056-16.384 18.432-32.768 34.816-49.152 51.2zM598.016 450.048l30.72 6.144c-4.096 30.72-18.432 57.344-36.864 79.872-20.48 22.528-47.104 36.864-75.776 40.96l-4.096-32.768c22.528-4.096 43.008-14.336 59.392-32.768 12.288-16.384 22.528-38.912 26.624-61.44zM645.12 591.36c-34.816 36.864-77.824 61.44-126.976 69.632l-4.096-32.768c40.96-6.144 79.872-26.624 108.544-59.392 28.672-30.72 47.104-69.632 53.248-112.64l30.72 6.144c-8.192 49.152-28.672 94.208-61.44 129.024z" />
<glyph unicode="&#xe90f;" glyph-name="mailus" d="M583.68 404.992c-8.192-6.144-16.384-12.288-22.528-16.384s-12.288-8.192-22.528-12.288c-10.24-4.096-18.432-6.144-26.624-6.144v0 0c-8.192 0-16.384 2.048-26.624 6.144s-16.384 8.192-22.528 12.288c-6.144 4.096-12.288 8.192-22.528 16.384-2.048 2.048-6.144 4.096-8.192 6.144l-122.88-122.88c6.144-6.144 16.384-10.24 24.576-10.24h352.256c10.24 0 18.432 4.096 24.576 10.24l-120.832 120.832c0 0-4.096-2.048-6.144-4.096zM321.536 486.912c-8.192 6.144-16.384 12.288-24.576 20.48v-186.368l106.496 106.496c-20.48 18.432-49.152 36.864-81.92 59.392zM620.544 429.568l106.496-106.496v186.368c-6.144-8.192-14.336-14.336-24.576-20.48-32.768-24.576-59.392-43.008-81.92-59.392zM337.92 513.536c6.144-4.096 22.528-14.336 49.152-34.816 14.336-10.24 26.624-18.432 38.912-26.624 10.24-6.144 18.432-12.288 24.576-16.384 0 0 2.048-2.048 4.096-2.048 2.048-2.048 4.096-2.048 6.144-4.096 6.144-4.096 10.24-6.144 12.288-8.192 4.096-2.048 8.192-4.096 12.288-8.192 4.096-2.048 10.24-4.096 14.336-6.144s8.192-2.048 12.288-2.048v0 0c4.096 0 8.192 0 12.288 2.048s8.192 4.096 14.336 6.144c4.096 2.048 8.192 6.144 12.288 8.192s8.192 6.144 12.288 8.192c2.048 2.048 4.096 4.096 6.144 4.096 2.048 2.048 2.048 2.048 4.096 2.048 6.144 4.096 14.336 10.24 24.576 16.384 20.48 14.336 49.152 34.816 88.064 61.44 12.288 8.192 20.48 18.432 28.672 28.672 8.192 12.288 12.288 24.576 12.288 36.864 0 10.24-4.096 20.48-12.288 26.624-8.192 8.192-16.384 12.288-26.624 12.288h-352.256c-12.288 0-22.528-4.096-28.672-12.288s-10.24-18.432-10.24-30.72c0-10.24 4.096-20.48 12.288-32.768 10.24-14.336 18.432-22.528 28.672-28.672z" />
<glyph unicode="&#xe910;" glyph-name="locateus" d="M514.048 458.24c-30.72 0-55.296 24.576-55.296 55.296s24.576 55.296 55.296 55.296c30.72 0 55.296-24.576 55.296-55.296 0-28.672-24.576-55.296-55.296-55.296zM620.544 622.080c-28.672 28.672-67.584 45.056-108.544 45.056s-79.872-16.384-108.544-45.056c-53.248-53.248-61.44-153.6-14.336-215.040l122.88-178.176 122.88 178.176c47.104 61.44 38.912 161.792-14.336 215.040z" />
<glyph unicode="&#xe911;" glyph-name="cart" d="M468.992 355.84c-4.096 4.096-10.24 8.192-16.384 8.192s-12.288-2.048-16.384-8.192c-4.096-4.096-6.144-10.24-6.144-16.384s2.048-12.288 6.144-16.384c4.096-4.096 10.24-6.144 16.384-6.144s12.288 2.048 16.384 6.144c4.096 4.096 6.144 10.24 6.144 16.384s-2.048 10.24-6.144 16.384zM638.976 355.84c-4.096 4.096-10.24 8.192-16.384 8.192s-12.288-2.048-16.384-8.192-6.144-10.24-6.144-16.384 2.048-12.288 6.144-16.384 10.24-6.144 16.384-6.144c6.144 0 12.288 2.048 16.384 6.144s6.144 10.24 6.144 16.384-2.048 10.24-6.144 16.384zM669.696 448v98.304c0 4.096-2.048 6.144-4.096 8.192s-6.144 4.096-8.192 4.096h-227.328c0 0 0 2.048 0 4.096s0 4.096-2.048 6.144c0 2.048 0 2.048-2.048 4.096 0 2.048-2.048 4.096-2.048 4.096 0 2.048-2.048 2.048-4.096 2.048s-4.096 2.048-6.144 2.048h-49.152c-4.096 0-6.144-2.048-8.192-4.096s-4.096-6.144-4.096-8.192c0-4.096 2.048-6.144 4.096-8.192s6.144-4.096 8.192-4.096h38.912l32.768-157.696c0 0-2.048-2.048-4.096-8.192-2.048-4.096-4.096-8.192-6.144-12.288s-2.048-6.144-2.048-8.192 2.048-6.144 4.096-8.192c2.048-2.048 6.144-4.096 8.192-4.096h196.608c4.096 0 6.144 2.048 8.192 4.096s4.096 6.144 4.096 8.192c0 4.096-2.048 6.144-4.096 8.192-2.048 8.192-4.096 8.192-8.192 8.192h-174.080c2.048 6.144 4.096 10.24 4.096 12.288s0 2.048 0 4.096 0 4.096-2.048 4.096c0 2.048 0 4.096 0 4.096l198.656 22.528c4.096 0 6.144 2.048 8.192 4.096 2.048 4.096 2.048 8.192 2.048 10.24z" />
<glyph unicode="&#xe912;" glyph-name="search" d="M604.16 474.624c0-65.536-53.248-118.784-118.784-118.784s-118.784 53.248-118.784 118.784 53.248 118.784 118.784 118.784 118.784-53.248 118.784-118.784zM686.080 318.976l-73.728 71.68c16.384 24.576 24.576 53.248 24.576 83.968 0 83.968-69.632 153.6-153.6 153.6s-153.6-69.632-153.6-153.6c0-83.968 69.632-153.6 153.6-153.6 30.72 0 61.44 10.24 83.968 26.624l71.68-69.632c12.288-10.24 30.72-10.24 40.96 2.048 16.384 8.192 16.384 26.624 6.144 38.912v0z" />
<glyph unicode="&#xe913;" glyph-name="home" d="M729.088 445.952c0 2.048-2.048 4.096-2.048 6.144l-59.392 51.2v114.688c0 2.048 0 4.096-2.048 6.144s-4.096 2.048-6.144 2.048h-51.2c-2.048 0-4.096 0-6.144-2.048s-2.048-4.096-2.048-6.144v-55.296l-67.584 57.344c-6.144 4.096-12.288 8.192-20.48 8.192s-14.336-2.048-20.48-8.192l-194.56-167.936c-2.048-2.048-2.048-4.096-2.048-6.144s0-4.096 2.048-6.144l16.384-20.48c2.048-2.048 4.096-2.048 6.144-2.048s4.096 0 6.144 2.048l186.368 161.792 186.368-161.792c2.048-2.048 4.096-2.048 6.144-2.048v0c2.048 0 4.096 2.048 6.144 2.048l16.384 20.48c2.048 2.048 2.048 4.096 2.048 6.144zM667.648 421.376l-155.648 133.12-155.648-133.12c0 0 0 0 0 0s0 0 0 0v-135.168c0-4.096 2.048-8.192 6.144-12.288s8.192-6.144 12.288-6.144h102.4v108.544h69.632v-108.544h102.4c4.096 0 8.192 2.048 12.288 6.144s6.144 8.192 6.144 12.288v135.168c0 0 0 0 0 0z" />
<glyph unicode="&#xe914;" glyph-name="leftbutton" d="M591.872 562.688c0 2.048 0 4.096-2.048 6.144l-14.336 14.336c-2.048 2.048-4.096 2.048-6.144 2.048s-4.096 0-6.144-2.048l-129.024-126.976c-2.048-2.048-2.048-4.096-2.048-6.144s0-4.096 2.048-6.144l126.976-129.024c2.048-2.048 4.096-2.048 6.144-2.048s4.096 0 6.144 2.048l14.336 14.336c2.048 2.048 2.048 4.096 2.048 6.144s0 4.096-2.048 6.144l-106.496 106.496 108.544 108.544c2.048 2.048 2.048 4.096 2.048 6.144zM514.048 804.352c0 0-2.048 0 0 0-196.608 0-356.352-157.696-358.4-354.304s157.696-356.352 354.304-358.4c0 0 2.048 0 2.048 0 94.208 0 182.272 36.864 249.856 102.4 67.584 67.584 104.448 155.648 106.496 249.856 0 198.656-157.696 358.4-354.304 360.448zM753.664 204.288c-65.536-63.488-149.504-98.304-241.664-98.304 0 0-2.048 0-2.048 0-188.416 2.048-342.016 155.648-339.968 344.064 0 188.416 153.6 339.968 342.016 339.968 0 0 2.048 0 2.048 0 188.416-2.048 342.016-155.648 339.968-344.064 0-92.16-36.864-176.128-100.352-241.664z" />
<glyph unicode="&#xe915;" glyph-name="rightbutton" d="M432.128 562.688c0 2.048 0 4.096 2.048 6.144l14.336 14.336c2.048 2.048 4.096 2.048 6.144 2.048s4.096 0 6.144-2.048l129.024-126.976c2.048-2.048 2.048-4.096 2.048-6.144s0-4.096-2.048-6.144l-126.976-129.024c-2.048-2.048-4.096-2.048-6.144-2.048s-4.096 0-6.144 2.048l-14.336 14.336c-2.048 2.048-2.048 4.096-2.048 6.144s0 4.096 2.048 6.144l108.544 108.544-108.544 108.544c-4.096 0-4.096 2.048-4.096 4.096zM155.648 445.952c0-94.208 38.912-184.32 106.496-249.856s155.648-102.4 249.856-102.4c0 0 2.048 0 2.048 0 196.608 2.048 354.304 161.792 354.304 358.4-2.048 192.512-161.792 352.256-356.352 352.256 0 0-2.048 0-2.048 0-196.608-2.048-354.304-161.792-354.304-358.4zM169.984 445.952c0 188.416 151.552 344.064 339.968 344.064 0 0 2.048 0 2.048 0 188.416 0 342.016-151.552 342.016-339.968s-151.552-344.064-339.968-344.064c0 0-2.048 0-2.048 0-90.112 0-176.128 34.816-241.664 98.304-63.488 65.536-100.352 149.504-100.352 241.664z" />
<glyph unicode="&#xe916;" glyph-name="righthover" d="M512 796.16c-192.512 0-348.16-155.648-348.16-348.16s155.648-348.16 348.16-348.16 348.16 155.648 348.16 348.16c0 192.512-155.648 348.16-348.16 348.16zM589.824 441.856l-129.024-129.024c-2.048-2.048-4.096-2.048-6.144-2.048s-4.096 0-6.144 2.048l-14.336 14.336c-2.048 2.048-2.048 4.096-2.048 6.144s0 4.096 2.048 6.144l108.544 108.544-108.544 108.544c-2.048 2.048-2.048 4.096-2.048 6.144s0 4.096 2.048 6.144l14.336 14.336c2.048 2.048 4.096 2.048 6.144 2.048s4.096 0 6.144-2.048l129.024-129.024c2.048-2.048 2.048-4.096 2.048-6.144s0-4.096-2.048-6.144z" />
<glyph unicode="&#xe917;" glyph-name="lefthover" d="M163.84 448c0-192.512 155.648-348.16 348.16-348.16s348.16 155.648 348.16 348.16c0 192.512-155.648 348.16-348.16 348.16s-348.16-155.648-348.16-348.16zM432.128 448c0 2.048 0 4.096 2.048 6.144l129.024 129.024c2.048 2.048 4.096 2.048 6.144 2.048s4.096 0 6.144-2.048l14.336-14.336c2.048-2.048 2.048-4.096 2.048-6.144s0-4.096-2.048-6.144l-108.544-108.544 108.544-108.544c2.048-2.048 2.048-4.096 2.048-6.144s0-4.096-2.048-6.144l-14.336-14.336c-2.048-2.048-4.096-2.048-6.144-2.048s-4.096 0-6.144 2.048l-129.024 129.024c-2.048 2.048-2.048 4.096-2.048 6.144z" />
<glyph unicode="&#xe918;" glyph-name="hotel" d="M628.736 519.68v38.912c0 14.336-22.528 28.672-49.152 28.672s-49.152-12.288-49.152-28.672v-26.624c0 0 30.72-2.048 49.152-4.096 20.48-2.048 49.152-8.192 49.152-8.192zM493.568 531.968v26.624c0 14.336-22.528 28.672-49.152 28.672s-49.152-12.288-49.152-28.672v-38.912c0 0 28.672 8.192 49.152 10.24 18.432 0 49.152 2.048 49.152 2.048zM264.192 353.792v-45.056h53.248v-59.392h43.008v59.392h303.104v-59.392h43.008v59.392h53.248v45.056zM704.512 466.432v157.696l-22.528 22.528h-339.968l-22.528-22.528v-157.696l-53.248-86.016h491.52l-53.248 86.016zM659.456 493.056c-28.672 6.144-77.824 16.384-147.456 16.384s-118.784-8.192-147.456-16.384v110.592h294.912v-110.592z" />
<glyph unicode="&#xe919;" glyph-name="fod" d="M317.44 316.928c0 8.192 0 14.336 2.048 22.528 2.048 18.432 6.144 36.864 10.24 53.248 2.048 8.192 6.144 18.432 8.192 26.624 4.096 8.192 6.144 16.384 10.24 24.576 8.192 16.384 16.384 30.72 26.624 43.008 2.048 4.096 4.096 6.144 8.192 10.24 2.048 2.048 6.144 6.144 8.192 8.192 6.144 4.096 10.24 10.24 16.384 14.336 12.288 8.192 20.48 16.384 30.72 20.48 10.24 6.144 18.432 10.24 26.624 12.288 14.336 6.144 22.528 8.192 22.528 8.192s-8.192-6.144-20.48-14.336c-6.144-4.096-14.336-10.24-22.528-18.432-8.192-6.144-16.384-16.384-24.576-24.576-4.096-4.096-8.192-10.24-12.288-16.384-2.048-2.048-4.096-6.144-6.144-8.192s-4.096-6.144-6.144-8.192c-8.192-12.288-14.336-26.624-20.48-38.912-2.048-8.192-6.144-14.336-8.192-22.528s-4.096-16.384-6.144-24.576-6.144-32.768-8.192-49.152c0-6.144-2.048-12.288-2.048-18.432 139.264 0 245.76 0 395.264 0 0 6.144 0 12.288 0 18.432 0 122.88-92.16 225.28-210.944 237.568 8.192 6.144 12.288 16.384 12.288 28.672 0 20.48-18.432 38.912-38.912 38.912-22.528 0-38.912-16.384-38.912-38.912 0-10.24 4.096-20.48 12.288-28.672-118.784-14.336-210.944-114.688-210.944-237.568 0-6.144 0-12.288 0-18.432 20.48 0 34.816 0 47.104 0zM231.424 302.592h561.152v-49.152h-561.152v49.152z" />
<glyph unicode="&#xe91a;" glyph-name="adventur" d="M724.992 372.224c-6.144-16.384-16.384-28.672-30.72-34.816-8.192-4.096-16.384-6.144-26.624-6.144-22.528 0-45.056 12.288-55.296 34.816-14.336 30.72-2.048 65.536 28.672 81.92 8.192 4.096 16.384 6.144 26.624 6.144 22.528 0 45.056-12.288 55.296-34.816 6.144-16.384 8.192-32.768 2.048-47.104zM512 394.752c-12.288 0-24.576 10.24-24.576 24.576 0 12.288 10.24 24.576 24.576 24.576 12.288 0 24.576-10.24 24.576-24.576 0-12.288-12.288-24.576-24.576-24.576zM411.648 364.032c-10.24-20.48-30.72-34.816-55.296-34.816-10.24 0-18.432 2.048-26.624 6.144-14.336 6.144-24.576 20.48-30.72 34.816s-4.096 32.768 2.048 47.104c10.24 20.48 30.72 34.816 55.296 34.816 10.24 0 18.432-2.048 26.624-6.144 30.72-14.336 43.008-51.2 28.672-81.92zM753.664 433.664c-4.096 10.24-12.288 18.432-20.48 26.624 0 0-63.488 81.92-83.968 110.592-18.432 24.576-51.2 38.912-79.872 24.576s-40.96-47.104-30.72-77.824l8.192-34.816h-71.68l8.192 34.816c12.288 28.672-2.048 63.488-30.72 77.824s-61.44 2.048-79.872-24.576c-22.528-30.72-83.968-110.592-83.968-110.592-8.192-8.192-14.336-16.384-20.48-26.624-10.24-22.528-12.288-49.152-4.096-71.68s24.576-43.008 49.152-55.296c12.288-6.144 26.624-10.24 40.96-10.24 36.864 0 69.632 20.48 86.016 53.248 4.096 8.192 6.144 16.384 8.192 24.576l49.152-22.528c8.192-4.096 18.432-4.096 28.672 0l49.152 22.528c2.048-8.192 4.096-16.384 8.192-24.576 16.384-32.768 49.152-53.248 86.016-53.248 14.336 0 28.672 4.096 40.96 10.24 22.528 10.24 40.96 30.72 49.152 55.296 6.144 22.528 4.096 49.152-6.144 71.68z" />
<glyph unicode="&#xe91b;" glyph-name="tour" d="M522.24 464.384c-16.384 6.144-32.768-4.096-36.864-18.432-6.144-16.384 4.096-32.768 18.432-36.864 16.384-6.144 32.768 4.096 36.864 18.432s-4.096 30.72-18.432 36.864zM729.088 638.464c-2.048 10.24-8.192 18.432-18.432 20.48-63.488 20.48-131.072 30.72-198.656 30.72s-135.168-10.24-198.656-30.72c-8.192-2.048-14.336-10.24-18.432-20.48-2.048-10.24 0-20.48 4.096-28.672l10.24-14.336c10.24-16.384 22.528-30.72 32.768-47.104 6.144-8.192 14.336-12.288 24.576-10.24l59.392-81.92c-2.048-2.048-2.048-6.144-2.048-8.192l12.288-55.296c0-4.096 4.096-8.192 8.192-10.24v0l26.624-12.288v-61.44l-12.288-14.336v-2.048c-2.048-2.048-4.096-6.144-4.096-12.288l2.048-61.44c0-8.192 6.144-14.336 14.336-14.336s16.384 6.144 16.384 14.336l2.048 53.248 16.384 16.384 16.384-16.384 2.048-53.248c0-8.192 6.144-14.336 14.336-14.336s16.384 6.144 16.384 14.336l2.048 61.44c0 4.096-2.048 8.192-4.096 12.288v2.048l-10.24 12.288v65.536l26.624 12.288h2.048c4.096 2.048 6.144 6.144 8.192 10.24l12.288 55.296c0 4.096 0 6.144-2.048 8.192l59.392 81.92c2.048 0 2.048 0 4.096 0 8.192 0 14.336 4.096 20.48 10.24l43.008 61.44c12.288 6.144 14.336 18.432 12.288 26.624zM376.832 542.208c10.24 4.096 20.48 6.144 32.768 8.192l22.528-81.92-55.296 73.728zM583.68 464.384c-4.096 0-10.24-4.096-10.24-8.192l-14.336-45.056-24.576-8.192h-45.056l-24.576 8.192-14.336 45.056c-2.048 4.096-6.144 8.192-10.24 8.192l-24.576 88.064c30.72 6.144 63.488 10.24 94.208 10.24s63.488-4.096 94.208-10.24l-20.48-88.064zM593.92 468.48l22.528 81.92c10.24-2.048 20.48-6.144 32.768-8.192l-55.296-73.728z" />
<glyph unicode="&#xe91c;" glyph-name="moreview" d="M618.496 366.080l-26.624-26.624c-4.096-4.096-8.192-4.096-12.288-4.096s-8.192 2.048-12.288 4.096l-36.864 36.864c-4.096 4.096-4.096 8.192-4.096 12.288s2.048 10.24 6.144 12.288c0 0 2.048-2.048 4.096-4.096s4.096-4.096 4.096-4.096c0 0 2.048-2.048 4.096-2.048 2.048-2.048 2.048-2.048 4.096-2.048s4.096 0 4.096 0c4.096 0 8.192 2.048 12.288 4.096 4.096 4.096 4.096 8.192 4.096 12.288 0 2.048 0 4.096 0 4.096 0 2.048-2.048 2.048-2.048 4.096s-2.048 2.048-2.048 4.096-2.048 2.048-4.096 4.096-2.048 2.048-4.096 4.096c4.096 4.096 8.192 6.144 12.288 6.144s8.192-2.048 12.288-4.096l36.864-36.864c4.096-4.096 4.096-8.192 4.096-12.288 2.048-4.096 0-8.192-4.096-12.288zM491.52 493.056c0 0-2.048 2.048-4.096 4.096s-4.096 4.096-4.096 4.096c0 0-2.048 2.048-4.096 2.048-2.048 2.048-4.096 2.048-4.096 2.048-2.048 0-4.096 0-4.096 0-4.096 0-8.192-2.048-12.288-4.096-4.096-4.096-4.096-8.192-4.096-12.288 0-2.048 0-4.096 0-4.096 0-2.048 2.048-2.048 2.048-4.096 2.048-2.048 2.048-2.048 2.048-4.096s2.048-2.048 4.096-4.096c2.048-2.048 2.048-2.048 4.096-4.096-4.096-4.096-8.192-6.144-12.288-6.144s-8.192 2.048-12.288 4.096l-36.864 36.864c-4.096 4.096-4.096 8.192-4.096 12.288s2.048 8.192 4.096 12.288l26.624 26.624c4.096 4.096 8.192 4.096 12.288 4.096s8.192-2.048 12.288-4.096l36.864-36.864c4.096-4.096 4.096-8.192 4.096-12.288s-2.048-8.192-6.144-12.288zM643.072 415.232l-36.864 36.864c-10.24 10.24-22.528 14.336-36.864 14.336s-26.624-6.144-36.864-16.384l-16.384 18.432c10.24 10.24 16.384 22.528 16.384 36.864s-4.096 26.624-14.336 36.864l-36.864 36.864c-10.24 10.24-22.528 14.336-36.864 14.336s-26.624-4.096-36.864-14.336l-26.624-26.624c-10.24-10.24-14.336-22.528-14.336-36.864s4.096-26.624 14.336-36.864l36.864-36.864c10.24-10.24 22.528-14.336 36.864-14.336s26.624 6.144 36.864 16.384l16.384-16.384c-10.24-10.24-16.384-22.528-16.384-36.864s4.096-26.624 14.336-36.864l36.864-36.864c10.24-10.24 22.528-14.336 36.864-14.336s26.624 4.096 36.864 14.336l26.624 26.624c10.24 10.24 14.336 22.528 14.336 36.864 2.048 12.288-4.096 24.576-14.336 34.816z" />
<glyph unicode="&#xe91d;" glyph-name="addtocart" d="M667.648 554.496c-2.048 2.048-6.144 4.096-8.192 4.096h-229.376c0 0 0 2.048 0 4.096s0 4.096-2.048 6.144c0 2.048 0 4.096-2.048 4.096 0 2.048-2.048 4.096-2.048 4.096 0 2.048-2.048 2.048-4.096 2.048s-4.096 2.048-6.144 2.048h-49.152c-4.096 0-6.144-2.048-8.192-4.096s-4.096-6.144-4.096-8.192c0-4.096 2.048-6.144 4.096-8.192s6.144-4.096 8.192-4.096h38.912l32.768-157.696c0 0-2.048-2.048-4.096-8.192-2.048-4.096-4.096-8.192-6.144-12.288s-2.048-6.144-2.048-8.192 2.048-6.144 4.096-8.192c2.048-2.048 6.144-4.096 8.192-4.096h194.56c4.096 0 6.144 2.048 8.192 4.096s4.096 6.144 4.096 8.192c0 4.096-2.048 6.144-4.096 8.192 0 8.192-2.048 8.192-6.144 8.192h-174.080c2.048 6.144 4.096 10.24 4.096 12.288s0 2.048 0 4.096 0 4.096-2.048 4.096c0 2.048 0 4.096 0 4.096l198.656 22.528c4.096 0 6.144 2.048 8.192 4.096s2.048 4.096 2.048 8.192v98.304c0 4.096 0 8.192-2.048 10.24zM622.592 361.984c-6.144 0-12.288-2.048-16.384-6.144s-6.144-10.24-6.144-16.384 2.048-12.288 6.144-16.384c4.096-4.096 10.24-8.192 16.384-8.192s12.288 2.048 16.384 8.192c4.096 4.096 6.144 10.24 6.144 16.384s-2.048 12.288-6.144 16.384c-4.096 4.096-10.24 6.144-16.384 6.144zM450.56 361.984c-6.144 0-12.288-2.048-16.384-6.144s-6.144-10.24-6.144-16.384 2.048-12.288 6.144-16.384c4.096-4.096 10.24-8.192 16.384-8.192s12.288 2.048 16.384 8.192c4.096 4.096 6.144 10.24 6.144 16.384s-2.048 12.288-6.144 16.384c-4.096 4.096-8.192 6.144-16.384 6.144zM573.44 484.864h-24.576v-24.576c0-4.096-2.048-6.144-4.096-8.192s-6.144-4.096-8.192-4.096-6.144 2.048-8.192 4.096c-2.048 2.048-4.096 6.144-4.096 8.192v24.576h-24.576c-4.096 0-6.144 2.048-8.192 4.096s-4.096 6.144-4.096 8.192c0 4.096 2.048 6.144 4.096 8.192s6.144 4.096 8.192 4.096h24.576v24.576c0 4.096 2.048 6.144 4.096 8.192s6.144 4.096 8.192 4.096 6.144-2.048 8.192-4.096c2.048-2.048 4.096-6.144 4.096-8.192v-24.576h24.576c4.096 0 6.144-2.048 8.192-4.096s4.096-6.144 4.096-8.192c0-4.096-2.048-6.144-4.096-8.192-2.048-4.096-6.144-4.096-8.192-4.096z" />
<glyph unicode="&#xe91e;" glyph-name="crusiename" d="M481.28 556.544h-32.768c-8.192 0-14.336-6.144-14.336-12.288v-8.192h153.6v8.192c0 8.192-6.144 12.288-14.336 12.288h-32.768l-6.144 53.248h-49.152l-4.096-53.248zM452.608 642.56c4.096 0 8.192 0 12.288 2.048 4.096-6.144 10.24-10.24 18.432-10.24 2.048 0 4.096 0 8.192 2.048 0 0 0 0 0-2.048 0-8.192 6.144-14.336 14.336-14.336s14.336 6.144 14.336 14.336-6.144 14.336-14.336 14.336v0c2.048 2.048 2.048 6.144 2.048 8.192 0 12.288-10.24 22.528-22.528 22.528 0 0 0 0-2.048 0-4.096 12.288-16.384 22.528-30.72 22.528-16.384 0-30.72-14.336-30.72-30.72s14.336-28.672 30.72-28.672zM645.12 421.376v88.064c0 8.192-6.144 12.288-14.336 12.288h-239.616c-8.192 0-14.336-6.144-14.336-12.288v-88.064l133.12 61.44 135.168-61.44zM512 468.48l-196.608-92.16 57.344-165.888c26.624 12.288 61.44 24.576 98.304 24.576 57.344 0 102.4-26.624 163.84-40.96h10.24l63.488 182.272-196.608 92.16z" />
<glyph unicode="&#xe91f;" glyph-name="cities" d="M514.048 458.24c-28.672 0-49.152 22.528-49.152 49.152s22.528 49.152 49.152 49.152c26.624 0 49.152-22.528 49.152-49.152s-22.528-49.152-49.152-49.152zM608.256 603.648c-26.624 26.624-61.44 40.96-96.256 40.96-36.864 0-71.68-14.336-96.256-40.96-47.104-47.104-53.248-139.264-12.288-192.512l110.592-159.744 110.592 157.696c38.912 57.344 32.768 147.456-16.384 194.56z" />
<glyph unicode="&#xe920;" glyph-name="departures" d="M518.144 370.176l90.112 149.504-161.792-118.784-63.488 26.624 268.288 155.648-40.96-247.808-92.16 34.816zM661.504 613.888l-311.296-180.224c-4.096-2.048-6.144-6.144-6.144-10.24 0-6.144 2.048-8.192 8.192-10.24l88.064-36.864v-83.968c0-2.048 0-4.096 2.048-6.144s4.096-4.096 6.144-4.096c2.048 0 2.048 0 4.096 0 4.096 0 6.144 2.048 8.192 4.096l55.296 61.44 98.304-40.96c2.048 0 4.096 0 4.096 0 2.048 0 4.096 0 6.144 2.048 4.096 2.048 6.144 4.096 6.144 8.192l47.104 286.72c0 4.096 0 8.192-4.096 12.288-4.096 0-8.192 0-12.288-2.048z" />
<glyph unicode="&#xe921;" glyph-name="country" d="M512 581.12c4.096 0 8.192-4.096 8.192-8.192s-4.096-8.192-8.192-8.192-8.192 4.096-8.192 8.192c0 4.096 4.096 8.192 8.192 8.192zM645.12 370.176l-10.24 51.2c0 2.048-2.048 4.096-4.096 4.096s-4.096 0-6.144 0l-45.056-26.624c-2.048-2.048-4.096-4.096-2.048-8.192 0-2.048 4.096-4.096 6.144-4.096l18.432 2.048c-16.384-22.528-43.008-32.768-71.68-34.816v149.504h14.336c2.048-2.048 6.144-2.048 8.192-2.048 8.192 0 14.336 6.144 14.336 14.336s-6.144 14.336-14.336 14.336c-4.096 0-6.144-2.048-8.192-2.048h-14.336v20.48c8.192 6.144 14.336 14.336 14.336 26.624 0 16.384-14.336 30.72-30.72 30.72s-30.72-14.336-30.72-30.72c0-10.24 6.144-20.48 14.336-26.624v-20.48h-14.336c-2.048 2.048-6.144 2.048-8.192 2.048-8.192 0-14.336-6.144-14.336-14.336s6.144-14.336 14.336-14.336c4.096 0 6.144 2.048 8.192 2.048h14.336v-149.504c-28.672 2.048-55.296 12.288-71.68 34.816l18.432-2.048c4.096 0 6.144 2.048 6.144 4.096s0 6.144-2.048 8.192l-49.152 28.672c-2.048 2.048-4.096 2.048-6.144 0-2.048 0-4.096-2.048-4.096-4.096l-10.24-53.248c0-2.048 0-6.144 4.096-8.192 2.048-2.048 6.144 0 8.192 2.048l10.24 14.336c20.48-32.768 53.248-61.44 92.16-69.632l14.336-14.336c2.048-2.048 6.144-2.048 10.24 0l14.336 14.336c36.864 8.192 69.632 34.816 92.16 69.632l10.24-14.336c2.048-2.048 6.144-4.096 8.192-2.048 0 2.048 2.048 4.096 2.048 8.192z" />
<glyph unicode="&#xe922;" glyph-name="fullstar" d="M661.504 491.008l-96.256 14.336-43.008 88.064c-2.048 6.144-6.144 8.192-10.24 8.192s-6.144-2.048-10.24-8.192l-43.008-88.064-96.256-14.336c-8.192-2.048-10.24-4.096-10.24-8.192 0-2.048 2.048-6.144 4.096-10.24l69.632-67.584-16.384-96.256c0-2.048 0-4.096 0-4.096 0-2.048 0-4.096 2.048-6.144s4.096-2.048 6.144-2.048c2.048 0 4.096 0 8.192 2.048l86.016 45.056 86.016-45.056c2.048-2.048 6.144-2.048 8.192-2.048s4.096 0 6.144 2.048 2.048 4.096 2.048 6.144c0 2.048 0 2.048 0 4.096l-16.384 96.256 69.632 67.584c4.096 4.096 4.096 6.144 4.096 10.24s-2.048 8.192-10.24 8.192z" />
<glyph unicode="&#xe923;" glyph-name="halfstar" d="M671.744 484.864c-2.048 4.096-4.096 6.144-10.24 6.144l-96.256 14.336-43.008 88.064c-2.048 6.144-6.144 8.192-10.24 8.192s-6.144-2.048-10.24-8.192l-43.008-88.064-96.256-14.336c-6.144 0-10.24-4.096-10.24-6.144-2.048-4.096 0-8.192 4.096-12.288l69.632-67.584-16.384-96.256c0-4.096 0-8.192 2.048-10.24s4.096-4.096 6.144-4.096c2.048 0 4.096 0 8.192 2.048l86.016 45.056 86.016-45.056c2.048-2.048 6.144-2.048 8.192-2.048s6.144 2.048 6.144 4.096c2.048 2.048 2.048 6.144 2.048 10.24l-16.384 96.256 69.632 67.584c4.096 4.096 6.144 8.192 4.096 12.288zM579.584 423.424l-10.24-8.192 2.048-12.288 12.288-67.584-61.44 32.768-10.24 2.048v186.368l36.864-73.728 12.288-2.048 69.632-10.24-51.2-47.104z" />
<glyph unicode="&#xe924;" glyph-name="nostar" d="M661.504 491.008l-96.256 14.336-43.008 88.064c-2.048 6.144-6.144 8.192-10.24 8.192s-6.144-2.048-10.24-8.192l-43.008-88.064-96.256-14.336c-8.192-2.048-10.24-4.096-10.24-8.192 0-2.048 2.048-6.144 4.096-10.24l69.632-67.584-16.384-96.256c0-2.048 0-4.096 0-4.096 0-2.048 0-4.096 2.048-6.144s4.096-2.048 6.144-2.048c2.048 0 4.096 0 8.192 2.048l86.016 45.056 86.016-45.056c2.048-2.048 6.144-2.048 8.192-2.048 6.144 0 8.192 4.096 8.192 10.24 0 2.048 0 2.048 0 4.096l-16.384 96.256 69.632 67.584c4.096 4.096 4.096 6.144 4.096 10.24 0 2.048-2.048 6.144-10.24 6.144zM585.728 331.264l-73.728 38.912-73.728-38.912 14.336 81.92-59.392 57.344 81.92 12.288 36.864 73.728 36.864-73.728 81.92-12.288-59.392-57.344 14.336-81.92z" />
<glyph unicode="&#xe925;" glyph-name="tesimonials" d="M436.224 296.448c26.624 26.624 38.912 61.44 38.912 100.352 0 61.44-34.816 104.448-106.496 126.976-6.144 2.048-14.336 2.048-24.576 2.048-26.624 0-43.008 2.048-51.2 6.144 2.048 20.48 14.336 36.864 34.816 51.2 12.288 8.192 30.72 20.48 55.296 34.816 0 14.336-6.144 20.48-18.432 20.48-47.104-16.384-83.968-38.912-108.544-67.584-38.912-45.056-57.344-100.352-57.344-161.792 0-34.816 8.192-63.488 22.528-83.968 30.72-45.056 69.632-67.584 116.736-67.584 38.912-2.048 71.68 12.288 98.304 38.912zM788.48 296.448c24.576 26.624 36.864 61.44 36.864 100.352 0 61.44-32.768 104.448-100.352 126.976-8.192 2.048-16.384 2.048-28.672 2.048-24.576 0-40.96 2.048-49.152 6.144 0 14.336 6.144 24.576 14.336 34.816 26.624 20.48 51.2 38.912 73.728 51.2 0 14.336-6.144 20.48-18.432 20.48-47.104-16.384-83.968-38.912-108.544-67.584-40.96-49.152-61.44-102.4-61.44-161.792 0-32.768 8.192-59.392 24.576-83.968 30.72-45.056 69.632-67.584 116.736-67.584 43.008-2.048 75.776 12.288 100.352 38.912z" />
<glyph unicode="&#xe926;" glyph-name="navigationtotop" d="M512 765.44c-176.128 0-317.44-143.36-317.44-317.44 0-176.128 143.36-317.44 317.44-317.44s317.44 143.36 317.44 317.44c0 176.128-141.312 317.44-317.44 317.44zM512 163.328c-157.696 0-284.672 126.976-284.672 284.672s126.976 284.672 284.672 284.672c157.696 0 284.672-126.976 284.672-284.672s-126.976-284.672-284.672-284.672zM534.528 536.064c-4.096 6.144-12.288 10.24-22.528 10.24-8.192 0-16.384-4.096-22.528-10.24l-114.688-149.504c-8.192-10.24-6.144-26.624 8.192-32.768 6.144-4.096 12.288-4.096 18.432-4.096 6.144 2.048 12.288 4.096 16.384 10.24l92.16 120.832 92.16-120.832c4.096-6.144 10.24-8.192 16.384-10.24s14.336 0 18.432 4.096c8.192 4.096 12.288 12.288 12.288 20.48 0 4.096-2.048 10.24-4.096 14.336l-110.592 147.456z" />
<glyph unicode="&#xe927;" glyph-name="fax" d="M364.544 495.104h-6.144c-16.384 0-30.72-14.336-30.72-30.72v-122.88c0-16.384 14.336-30.72 30.72-30.72h6.144c-4.096 8.192-8.192 20.48-8.192 32.768v118.784c0 12.288 2.048 24.576 8.192 32.768zM665.6 495.104h-18.432v61.44c0 22.528-18.432 43.008-38.912 43.008h-114.688c-22.528 0-38.912-18.432-38.912-43.008v-61.44h-10.24c4.096-8.192 8.192-20.48 8.192-32.768v-118.784c0-12.288-2.048-22.528-8.192-32.768h223.232c16.384 0 30.72 14.336 30.72 30.72v122.88c-2.048 16.384-16.384 30.72-32.768 30.72zM471.040 488.96v67.584c0 12.288 10.24 24.576 20.48 24.576h114.688c12.288 0 20.48-10.24 20.48-24.576v-67.584c0-12.288-10.24-24.576-20.48-24.576h-114.688c-10.24 0-20.48 12.288-20.48 24.576zM634.88 333.312c-8.192 0-12.288 6.144-12.288 12.288 0 8.192 6.144 12.288 12.288 12.288 8.192 0 12.288-6.144 12.288-12.288s-6.144-12.288-12.288-12.288zM651.264 380.416h-169.984v51.2h169.984v-51.2zM403.456 509.44c-20.48 0-34.816-20.48-34.816-45.056v-118.784c0-24.576 16.384-45.056 34.816-45.056 20.48 0 34.816 20.48 34.816 45.056v118.784c0 24.576-16.384 45.056-34.816 45.056zM491.52 548.352h114.688c4.096 0 6.144 4.096 6.144 6.144 0 4.096-4.096 6.144-6.144 6.144h-114.688c-4.096 0-6.144-4.096-6.144-6.144s2.048-6.144 6.144-6.144zM491.52 515.584h114.688c4.096 0 6.144 4.096 6.144 6.144 0 4.096-4.096 6.144-6.144 6.144h-114.688c-4.096 0-6.144-4.096-6.144-6.144s2.048-6.144 6.144-6.144zM614.4 491.008c0 4.096-4.096 6.144-6.144 6.144h-116.736c-4.096 0-6.144-4.096-6.144-6.144s4.096-6.144 6.144-6.144h114.688c4.096-2.048 8.192 2.048 8.192 6.144z" />
<glyph unicode="&#xe928;" glyph-name="web" d="M675.84 448c0-47.104-16.384-88.064-47.104-120.832-32.768-32.768-69.632-51.2-116.736-51.2-45.056 0-83.968 16.384-116.736 51.2-30.72 32.768-47.104 73.728-47.104 120.832s16.384 88.064 47.104 120.832c32.768 32.768 69.632 51.2 116.736 51.2 45.056 0 83.968-16.384 116.736-51.2 30.72-32.768 47.104-73.728 47.104-120.832zM555.008 579.072c12.288-24.576 20.48-45.056 22.528-61.44h47.104c-14.336 26.624-36.864 47.104-69.632 61.44zM481.28 517.632h63.488c-6.144 22.528-16.384 45.056-30.72 69.632-16.384-24.576-26.624-47.104-32.768-69.632zM440.32 413.184c0 4.096 0 10.24 0 16.384 0 8.192 0 14.336 0 18.432 0 14.336 0 26.624 2.048 34.816h-55.296c-4.096-10.24-6.144-20.48-6.144-34.816s2.048-24.576 6.144-34.816h53.248zM468.992 316.928c-12.288 24.576-20.48 45.056-22.528 61.44h-47.104c14.336-26.624 36.864-47.104 69.632-61.44zM468.992 579.072c-32.768-12.288-55.296-32.768-71.68-61.44h47.104c6.144 16.384 14.336 36.864 24.576 61.44zM542.72 378.368h-63.488c6.144-22.528 16.384-45.056 30.72-69.632 16.384 24.576 26.624 47.104 32.768 69.632zM550.912 423.424c0 4.096 2.048 8.192 2.048 12.288s0 8.192 0 12.288c0 6.144-2.048 18.432-4.096 34.816h-77.824c2.048-16.384 0-28.672 0-34.816s2.048-18.432 4.096-34.816h75.776c0 2.048 0 6.144 0 10.24zM624.64 378.368h-47.104c-4.096-20.48-12.288-40.96-22.528-61.44 32.768 14.336 55.296 34.816 69.632 61.44zM638.976 413.184c4.096 10.24 6.144 20.48 6.144 34.816s-2.048 24.576-6.144 34.816h-55.296c0-4.096 0-10.24 0-16.384 0-8.192 0-14.336 0-18.432 0-14.336 0-26.624-2.048-34.816h57.344z" />
<glyph unicode="&#xe929;" glyph-name="arrows" d="M444.416 521.728c-8.192-12.288-6.144-30.72 8.192-38.912l51.2-32.768-51.2-32.768c-14.336-8.192-16.384-26.624-8.192-38.912 6.144-8.192 14.336-12.288 24.576-12.288 6.144 0 10.24 2.048 16.384 4.096l88.064 57.344c8.192 6.144 12.288 14.336 12.288 24.576s-4.096 18.432-12.288 24.576l-88.064 57.344c-4.096 4.096-10.24 4.096-16.384 4.096-10.24-4.096-20.48-8.192-24.576-16.384z" />
<glyph unicode="&#xe92a;" glyph-name="flight" d="M659.456 640.512c-18.432-6.144-34.816-16.384-49.152-30.72l-45.056-45.056-186.368 45.056c-2.048 0-6.144 0-8.192-2.048l-36.864-36.864c-2.048-2.048-2.048-4.096-2.048-8.192 0-2.048 2.048-6.144 4.096-6.144l143.36-77.824-71.68-71.68-55.296 14.336c0 0-2.048 0-2.048 0-2.048 0-4.096 0-6.144-2.048l-26.624-26.624c-2.048-2.048-2.048-4.096-2.048-6.144s2.048-6.144 4.096-6.144l69.632-55.296 53.248-71.68c2.048-2.048 4.096-4.096 6.144-4.096v0c2.048 0 4.096 0 6.144 2.048l26.624 26.624c2.048 2.048 4.096 6.144 2.048 8.192l-12.288 57.344 73.728 73.728 77.824-143.36c2.048-2.048 4.096-4.096 6.144-4.096 0 0 2.048 0 2.048 0 2.048 0 4.096 0 6.144 2.048l36.864 26.624c4.096 2.048 4.096 6.144 4.096 10.24l-45.056 196.608 45.056 45.056c14.336 14.336 24.576 30.72 30.72 49.152s4.096 32.768-4.096 40.96c-12.288 6.144-26.624 6.144-45.056 0z" />
</font>
</defs>
</svg>
